<svg width="16" height="16" viewBox="0 0 16 16" fill="none" xmlns="http://www.w3.org/2000/svg">
    <path d="M8.667 2a.667.667 0 0 0-1.333 0v6.39L5.139 6.196a.667.667 0 1 0-.943.943l3.333 3.333c.26.26.683.26.943 0l3.333-3.333a.667.667 0 0 0-.942-.943L8.667 8.391V2z" fill="#2271B1"/>
    <path d="M2 9.333c.369 0 .667.299.667.667v.8c0 .571 0 .96.025 1.26.024.292.068.441.12.545.128.251.332.455.583.583.105.053.254.096.546.12.3.025.689.025 1.26.025h5.6c.57 0 .959 0 1.259-.025.292-.024.442-.067.546-.12.25-.128.455-.332.583-.583.053-.104.096-.253.12-.546.025-.3.025-.688.025-1.259V10a.667.667 0 0 1 1.333 0v.828c0 .536 0 .98-.03 1.34-.03.375-.096.72-.26 1.043-.256.501-.664.91-1.166 1.165-.323.165-.668.23-1.043.261-.36.03-.803.03-1.34.03H5.173c-.537 0-.98 0-1.34-.03-.375-.03-.72-.096-1.043-.26a2.667 2.667 0 0 1-1.165-1.166c-.165-.324-.23-.668-.262-1.043-.029-.36-.029-.804-.029-1.34V10c0-.368.298-.667.667-.667z" fill="#2271B1"/>
</svg>
