<svg width="20" height="21" viewBox="0 0 20 21" fill="none" xmlns="http://www.w3.org/2000/svg">
    <path opacity=".12" d="M15.934 6.434 12.398 2.9a2.498 2.498 0 0 0-.732-.508v3.442c0 .467 0 .7.09.879.08.156.208.284.365.364.178.09.412.09.878.09h3.443a2.5 2.5 0 0 0-.508-.732z" fill="#404040"/>
    <path d="M11.667 2.391v3.442c0 .467 0 .7.091.879.08.156.208.284.364.364.179.09.412.09.879.09h3.442M7.5 13l2.5 2.5m0 0 2.5-2.5M10 15.5v-5m1.666-8.333H7.334c-1.4 0-2.1 0-2.635.272a2.5 2.5 0 0 0-1.093 1.093c-.272.534-.272 1.234-.272 2.635v8.666c0 1.4 0 2.1.272 2.635A2.5 2.5 0 0 0 4.7 18.561c.535.272 1.235.272 2.635.272h5.333c1.4 0 2.1 0 2.635-.272a2.5 2.5 0 0 0 1.093-1.093c.272-.535.272-1.235.272-2.635V7.167l-5-5z" stroke="#404040" stroke-width="1.667" stroke-linecap="round" stroke-linejoin="round"/>
</svg>
