<svg width="16" height="16" viewBox="0 0 16 16" fill="none" xmlns="http://www.w3.org/2000/svg">
    <path d="M14.315 4.129a.667.667 0 1 0-1.288-.346l-.072.27A6.335 6.335 0 0 0 1.7 7.335a.667.667 0 1 0 1.326.141 5.002 5.002 0 0 1 8.736-2.769l-.229-.06a.667.667 0 0 0-.345 1.287l1.822.488a.667.667 0 0 0 .816-.471l.488-1.821zM14.299 8.666a.667.667 0 0 0-1.326-.141 5.002 5.002 0 0 1-8.736 2.768l.229.062a.667.667 0 0 0 .345-1.288L2.99 9.579a.667.667 0 0 0-.817.471l-.488 1.821a.667.667 0 1 0 1.288.346l.072-.27A6.335 6.335 0 0 0 14.3 8.665z" fill="#459948"/>
</svg>
